<svg width="124" height="124" viewBox="0 0 124 124" fill="none" xmlns="http://www.w3.org/2000/svg">
<path d="M57.9212 0.0435667C58.2314 0.0410104 58.5416 0.0384541 58.8612 0.0358203C59.5176 0.0314566 60.174 0.0280522 60.8304 0.0255514C61.4867 0.0219384 62.1429 0.0155191 62.7991 0.006067C79.504 -0.2337 94.4789 6.64756 106.41 18.0935C108.636 20.2757 110.594 22.6205 112.428 25.1382C112.627 25.411 112.627 25.411 112.83 25.6892C120.238 35.9716 123.899 47.8263 123.964 60.4095C123.969 61.139 123.978 61.8685 123.99 62.5979C124.101 69.2683 123.305 75.674 121.056 81.9857C120.948 82.2972 120.84 82.6087 120.729 82.9297C118.397 89.4925 114.958 95.4562 110.523 100.829C110.379 101.007 110.235 101.185 110.086 101.368C100.078 113.661 85.5691 121.399 69.8785 123.511C67.3644 123.754 64.8473 123.756 62.3234 123.75C61.8931 123.75 61.8931 123.75 61.454 123.75C56.8653 123.737 52.4751 123.46 48.0023 122.365C47.5814 122.265 47.5814 122.265 47.152 122.164C37.0269 119.718 27.6201 114.634 20.0741 107.48C19.6461 107.115 19.2164 106.752 18.7848 106.391C8.52016 97.4156 2.26854 83.3817 0.397357 70.1095C0.367441 69.9095 0.337525 69.7095 0.306703 69.5035C-0.0179954 67.0589 0.00263634 64.5943 0.000648912 62.1326C0.000434772 61.894 0.00022063 61.6554 0 61.4096C0.00877518 55.2331 0.79938 49.4202 2.61892 43.5068C2.68714 43.2838 2.75536 43.0609 2.82564 42.8311C5.77831 33.4082 11.0629 25.277 17.8525 18.1709C18.0832 17.9239 18.314 17.6769 18.5517 17.4224C20.5662 15.3265 22.8301 13.5764 25.1519 11.8369C25.4162 11.6381 25.6805 11.4393 25.9528 11.2344C35.0864 4.62412 46.5664 0.135081 57.9212 0.0435667ZM51.1759 6.45301C50.731 6.54238 50.2859 6.63145 49.8408 6.72022C41.9195 8.36762 34.3661 11.9185 28.0082 16.9041C27.7263 17.1155 27.4445 17.327 27.1541 17.5449C15.9026 26.2794 7.79446 39.8477 6.01077 54.037C5.17588 62.0457 5.46533 70.3535 8.01415 78.0269C8.08078 78.2328 8.14741 78.4386 8.21606 78.6507C13.0137 93.3855 23.1389 105.169 36.9168 112.251C40.2934 113.961 43.7416 115.267 47.3676 116.347C47.703 116.448 48.0385 116.549 48.3841 116.653C52.8293 117.871 57.4618 118.054 62.0457 118.03C62.2866 118.029 62.5275 118.029 62.7757 118.028C78.2448 117.958 91.7311 111.629 102.807 101.027C113.998 89.5291 118.653 74.5958 118.502 58.8592C118.329 47.5635 113.963 36.5443 107.032 27.6718C106.834 27.4089 106.635 27.146 106.43 26.8751C99.9627 18.6165 91.6203 12.9197 81.9605 8.9866C81.6455 8.85718 81.3304 8.72777 81.0059 8.59443C71.7926 5.04035 60.7808 4.33776 51.1759 6.45301Z" fill="#C51516"/>
<path d="M74.0261 17.8541C74.2597 17.917 74.4933 17.9798 74.734 18.0445C80.9501 19.7455 86.5539 22.9286 91.4813 27.0384C91.6557 27.1837 91.8302 27.329 92.01 27.4787C100.748 34.8698 106.408 45.6695 107.576 57.0419C108.37 67.7963 106.045 78.6355 99.7328 87.5279C99.5131 87.841 99.2934 88.1541 99.0671 88.4767C92.0304 98.0541 81.718 104.65 69.9513 106.701C59.7391 108.259 49.4369 106.781 40.3853 101.779C40.0539 101.604 39.7225 101.428 39.3811 101.247C29.0122 95.5414 21.4775 85.3808 18.1861 74.1339C15.0006 62.7309 16.3026 50.4582 21.9781 40.0231C28.5032 28.7733 38.5978 20.9799 51.1757 17.5374C58.2613 15.6902 67.0067 15.8454 74.0261 17.8541ZM36.5769 31.1555C36.4128 31.2939 36.2488 31.4324 36.0798 31.575C32.1671 34.9205 29.2263 38.709 26.7385 43.19C26.4685 43.6695 26.4685 43.6695 26.1931 44.1587C21.9845 52.0547 20.8577 62.4627 23.2475 71.0595C23.3569 71.4941 23.4659 71.9287 23.5748 72.3634C26.1481 82.1981 32.9291 90.9644 41.6689 96.1468C50.3454 101.132 61.1718 103.252 71.031 100.79C72.0402 100.515 73.0334 100.208 74.0261 99.8791C74.2525 99.808 74.479 99.7368 74.7123 99.6635C83.4438 96.8846 91.1143 90.8659 95.9244 83.0941C96.122 82.7859 96.3196 82.4776 96.5232 82.1601C101.686 73.7897 103.471 62.9408 101.328 53.3331C99.7513 46.9684 97.0359 41.2202 92.7507 36.2227C92.484 35.9051 92.2172 35.5874 91.9424 35.2602C85.565 27.8665 76.1403 22.9852 66.4093 21.9712C55.4648 21.2076 45.0072 24.0264 36.5769 31.1555Z" fill="#C51516"/>
<path d="M63.2358 30.2054C64.3593 31.0915 64.772 31.4742 65.0012 32.8973C64.7874 34.2249 64.5358 34.6743 63.5532 35.5892C62.6358 35.8394 61.7233 35.8656 60.7762 35.9059C54.9618 36.3433 49.6067 38.4434 45.1459 42.2399C44.8931 42.4302 44.6403 42.6204 44.3798 42.8164C39.3522 47.0452 36.8318 53.5726 36.2795 59.9355C36.2634 60.1957 36.2473 60.4559 36.2307 60.724C36.1069 62.3026 35.9195 63.3052 34.6729 64.4088C33.9687 64.608 33.9687 64.608 33.2447 64.587C33.0058 64.5874 32.7669 64.5878 32.5207 64.5882C31.5121 64.3313 31.1515 63.988 30.5471 63.142C30.4252 62.272 30.3809 61.5539 30.4083 60.6876C30.4134 60.4491 30.4185 60.2107 30.4238 59.965C30.6387 53.71 32.7383 47.8456 36.5771 42.8733C36.7025 42.7078 36.8279 42.5423 36.9572 42.3718C39.1294 39.5369 41.595 37.3272 44.5112 35.2725C44.771 35.0876 45.0308 34.9027 45.2984 34.7121C50.2036 31.5191 57.3768 29.2023 63.2358 30.2054Z" fill="#C51516"/>
</svg>
