<svg width="544" height="128" viewBox="63.8 89.7 544.3 127.8" fill="none" xmlns="http://www.w3.org/2000/svg">
<path d="M123.652 91.9343C123.962 91.9318 124.272 91.9292 124.591 91.9266C125.246 91.9222 125.901 91.9188 126.557 91.9163C127.212 91.9127 127.867 91.9063 128.522 91.8969C145.2 91.6575 160.15 98.5276 172.062 109.955C174.285 112.134 176.24 114.475 178.07 116.988C178.269 117.26 178.269 117.26 178.472 117.538C185.868 127.804 189.523 139.639 189.588 152.202C189.593 152.93 189.601 153.659 189.614 154.387C189.725 161.047 188.93 167.442 186.684 173.743C186.577 174.054 186.469 174.365 186.357 174.686C184.03 181.238 180.596 187.192 176.169 192.556C176.025 192.734 175.881 192.911 175.733 193.094C165.74 205.367 151.255 213.093 135.59 215.202C133.08 215.443 130.567 215.446 128.047 215.44C127.618 215.44 127.618 215.44 127.179 215.44C122.598 215.427 118.215 215.15 113.749 214.057C113.329 213.958 113.329 213.958 112.9 213.857C102.792 211.414 93.4003 206.338 85.8665 199.196C85.4392 198.832 85.0103 198.469 84.5793 198.109C74.3314 189.148 68.0899 175.137 66.2218 161.886C66.1919 161.687 66.1621 161.487 66.1313 161.281C65.8071 158.841 65.8277 156.38 65.8257 153.922C65.8255 153.684 65.8253 153.446 65.8251 153.201C65.8338 147.034 66.6232 141.231 68.4397 135.327C68.5078 135.104 68.576 134.882 68.6461 134.652C71.594 125.245 76.87 117.127 83.6486 110.032C83.8789 109.786 84.1093 109.539 84.3466 109.285C86.3579 107.192 88.6181 105.445 90.9361 103.708C91.2 103.51 91.4638 103.311 91.7357 103.107C100.854 96.5074 112.316 92.0257 123.652 91.9343Z" fill="#FEFEFE"/>
<path d="M123.652 91.9343C123.962 91.9318 124.272 91.9292 124.591 91.9266C125.246 91.9222 125.901 91.9188 126.557 91.9163C127.212 91.9127 127.867 91.9063 128.522 91.8969C145.2 91.6575 160.15 98.5276 172.062 109.955C174.285 112.134 176.24 114.475 178.07 116.988C178.269 117.26 178.269 117.26 178.472 117.538C185.868 127.804 189.523 139.639 189.588 152.202C189.593 152.93 189.601 153.659 189.614 154.387C189.725 161.047 188.93 167.442 186.684 173.743C186.577 174.054 186.469 174.365 186.357 174.686C184.03 181.238 180.596 187.192 176.169 192.556C176.025 192.734 175.881 192.911 175.733 193.094C165.74 205.367 151.255 213.093 135.59 215.202C133.08 215.443 130.567 215.446 128.047 215.44C127.618 215.44 127.618 215.44 127.179 215.44C122.598 215.427 118.215 215.15 113.749 214.057C113.329 213.958 113.329 213.958 112.9 213.857C102.792 211.414 93.4003 206.338 85.8665 199.196C85.4392 198.832 85.0103 198.469 84.5793 198.109C74.3314 189.148 68.0899 175.137 66.2218 161.886C66.1919 161.687 66.1621 161.487 66.1313 161.281C65.8071 158.841 65.8277 156.38 65.8257 153.922C65.8255 153.684 65.8253 153.446 65.8251 153.201C65.8338 147.034 66.6232 141.231 68.4397 135.327C68.5078 135.104 68.576 134.882 68.6461 134.652C71.594 125.245 76.87 117.127 83.6486 110.032C83.8789 109.786 84.1093 109.539 84.3466 109.285C86.3579 107.192 88.6181 105.445 90.9361 103.708C91.2 103.51 91.4638 103.311 91.7357 103.107C100.854 96.5074 112.316 92.0257 123.652 91.9343ZM115.136 109.874C114.742 109.995 114.742 109.995 114.34 110.118C102.623 113.886 93.0031 122.024 87.3159 132.892C82.3289 142.793 80.9997 153.638 83.6486 164.416C83.7028 164.647 83.7571 164.879 83.813 165.118C85.6702 172.878 89.8287 179.623 95.372 185.284C95.6216 185.553 95.8712 185.821 96.1283 186.098C103.84 194.2 114.953 198.524 126.019 198.971C136.864 199.224 147.827 196.187 156.207 189.078C156.475 188.852 156.742 188.625 157.017 188.392C157.82 187.688 158.6 186.966 159.376 186.233C159.802 185.838 159.802 185.838 160.236 185.436C163.929 181.906 166.518 177.766 168.881 173.269C169.034 172.982 169.187 172.694 169.344 172.398C174.561 161.805 174.488 149.181 170.783 138.173C166.471 126.385 157.502 117.297 146.235 111.968C143.821 110.898 141.324 110.102 138.781 109.4C138.566 109.339 138.352 109.278 138.132 109.216C134.852 108.333 131.498 108.364 128.126 108.352C127.906 108.351 127.685 108.35 127.457 108.349C123.281 108.337 119.149 108.634 115.136 109.874Z" fill="#FEFDFD"/>
<path d="M278.512 119.201C278.297 120.878 277.798 122.385 277.238 123.97C277.143 124.24 277.048 124.511 276.95 124.789C276.75 125.357 276.548 125.925 276.345 126.493C276.036 127.364 275.734 128.238 275.432 129.111C275.236 129.664 275.039 130.216 274.842 130.768C274.753 131.03 274.663 131.292 274.571 131.563C274.305 132.292 274.305 132.292 273.759 133.43C272.729 133.87 272.456 133.733 271.346 133.337C270.895 133.14 270.445 132.94 269.996 132.738C263.1 129.799 254.969 128.341 247.688 130.85C246.075 131.537 245.237 132.269 244.332 133.805C243.754 135.757 243.62 137.597 244.45 139.497C247.199 144.168 253.729 145.683 258.496 147.409C261.762 148.601 264.925 149.944 268.056 151.452C268.274 151.556 268.493 151.659 268.718 151.765C274.228 154.394 278.834 158.245 281.049 164.1C281.988 166.932 282.5 169.656 282.631 172.637C282.644 172.892 282.657 173.148 282.67 173.411C282.836 179.648 281.093 185.625 276.795 190.231C270.003 197.103 259.608 198.271 250.431 198.346C240.834 198.311 231.95 196.542 223.38 192.24C223.572 190.398 224.073 188.783 224.698 187.044C224.796 186.766 224.894 186.489 224.995 186.203C225.306 185.323 225.62 184.444 225.934 183.565C226.147 182.966 226.359 182.366 226.571 181.767C227.089 180.304 227.61 178.841 228.133 177.379C229.18 177.564 230.103 177.817 231.079 178.235C231.334 178.342 231.589 178.449 231.851 178.559C232.121 178.672 232.39 178.785 232.667 178.901C240.44 182.067 251.067 184.105 259.112 180.814C260.831 179.934 261.892 178.953 262.748 177.202C263.254 174.889 263.407 172.447 262.151 170.358C258.639 165.75 252.115 164.134 246.918 162.265C241.451 160.281 235.994 158.243 231.618 154.298C231.374 154.084 231.131 153.871 230.88 153.651C227.224 150.25 224.891 145.65 224.608 140.634C224.379 133.451 225.643 127.626 230.51 122.094C236.026 116.277 244.007 113.899 251.874 113.519C260.993 113.383 270.56 114.321 278.512 119.201Z" fill="white"/>
<path d="M521.408 138.22C527.788 143.035 530.85 149.869 532.033 157.635C532.634 162.258 532.571 167.072 531.992 171.688C519.027 171.688 506.061 171.688 492.703 171.688C494.077 176.146 495.335 178.65 499.357 180.857C507.4 184.376 516.934 182.74 525.022 180.225C525.443 180.117 525.866 180.011 526.289 179.909C526.763 181.703 527.119 183.481 527.4 185.314C527.442 185.577 527.483 185.84 527.526 186.111C527.656 186.942 527.784 187.773 527.913 188.604C528.001 189.171 528.09 189.739 528.179 190.306C528.395 191.688 528.61 193.071 528.824 194.453C526.206 195.532 523.666 196.364 520.883 196.884C520.54 196.95 520.198 197.015 519.846 197.083C508.871 199.114 496.757 199.34 486.999 193.189C486.007 192.494 485.074 191.754 484.148 190.975C483.961 190.834 483.774 190.693 483.581 190.548C477.997 186.197 475.407 178.542 474.496 171.802C473.393 162.117 474.975 151.887 481.098 144.042C490.446 132.515 509.095 129.371 521.408 138.22ZM495.475 151.887C493.717 154.057 492.703 156.549 492.703 159.357C500.127 159.357 507.55 159.357 515.199 159.357C514.749 155.313 513.64 152.387 510.474 149.727C505.703 146.206 499.226 147.789 495.475 151.887Z" fill="white"/>
<path d="M294.354 135.011C300.21 135.011 306.065 135.011 312.098 135.011C312.113 137.539 312.129 140.066 312.145 142.671C312.156 144.279 312.168 145.887 312.18 147.495C312.199 150.044 312.217 152.592 312.232 155.141C312.243 157.197 312.258 159.253 312.275 161.309C312.281 162.091 312.285 162.873 312.289 163.655C312.057 172.591 312.057 172.591 315.583 180.541C319.73 183.852 325.059 182.438 330.158 182.438C330.158 166.787 330.158 151.136 330.158 135.011C336.014 135.011 341.869 135.011 347.902 135.011C347.902 154.627 347.902 174.243 347.902 194.453C344.901 195.309 342.048 196.043 338.991 196.548C338.587 196.615 338.184 196.682 337.769 196.751C336.606 196.94 335.442 197.122 334.277 197.299C333.994 197.342 333.711 197.386 333.419 197.43C324.108 198.78 312.114 199.294 304.048 193.801C298.63 189.762 295.958 184.262 294.884 177.689C294.228 172.997 294.272 168.299 294.292 163.572C294.294 162.744 294.294 161.917 294.295 161.089C294.297 159.149 294.302 157.21 294.309 155.271C294.317 152.84 294.32 150.41 294.323 147.98C294.329 143.657 294.342 139.334 294.354 135.011Z" fill="white"/>
<path d="M123.652 91.9343C123.962 91.9318 124.272 91.9292 124.591 91.9266C125.246 91.9222 125.901 91.9188 126.557 91.9163C127.212 91.9127 127.867 91.9063 128.522 91.8969C145.2 91.6575 160.15 98.5276 172.062 109.955C174.285 112.134 176.24 114.475 178.07 116.988C178.269 117.26 178.269 117.26 178.472 117.538C185.868 127.804 189.523 139.639 189.588 152.202C189.593 152.93 189.601 153.659 189.614 154.387C189.725 161.047 188.93 167.442 186.684 173.743C186.577 174.054 186.469 174.365 186.357 174.686C184.03 181.238 180.596 187.192 176.169 192.556C176.025 192.734 175.881 192.911 175.733 193.094C165.74 205.367 151.255 213.093 135.59 215.202C133.08 215.443 130.567 215.446 128.047 215.44C127.618 215.44 127.618 215.44 127.179 215.44C122.598 215.427 118.215 215.15 113.749 214.057C113.329 213.958 113.329 213.958 112.9 213.857C102.792 211.414 93.4003 206.338 85.8665 199.196C85.4392 198.832 85.0103 198.469 84.5793 198.109C74.3314 189.148 68.0899 175.137 66.2218 161.886C66.1919 161.687 66.1621 161.487 66.1313 161.281C65.8071 158.841 65.8277 156.38 65.8257 153.922C65.8255 153.684 65.8253 153.446 65.8251 153.201C65.8338 147.034 66.6232 141.231 68.4397 135.327C68.5078 135.104 68.576 134.882 68.6461 134.652C71.594 125.245 76.87 117.127 83.6486 110.032C83.8789 109.786 84.1093 109.539 84.3466 109.285C86.3579 107.192 88.6181 105.445 90.9361 103.708C91.2 103.51 91.4638 103.311 91.7357 103.107C100.854 96.5074 112.316 92.0257 123.652 91.9343ZM116.918 98.3333C116.474 98.4226 116.029 98.5115 115.585 98.6001C107.676 100.245 100.135 103.79 93.7878 108.767C93.5064 108.979 93.225 109.19 92.935 109.407C81.7019 118.128 73.6069 131.674 71.8261 145.84C70.9926 153.836 71.2815 162.13 73.8262 169.791C73.8927 169.997 73.9593 170.202 74.0278 170.414C78.8177 185.125 88.9264 196.889 102.682 203.96C106.053 205.667 109.496 206.97 113.116 208.049C113.451 208.15 113.786 208.251 114.131 208.354C118.569 209.57 123.194 209.753 127.77 209.729C128.011 209.728 128.251 209.728 128.499 209.727C143.943 209.657 157.407 203.338 168.466 192.754C179.638 181.275 184.285 166.365 184.135 150.654C183.962 139.377 179.603 128.376 172.684 119.518C172.485 119.255 172.287 118.993 172.082 118.722C165.625 110.477 157.297 104.79 147.652 100.863C147.338 100.734 147.023 100.604 146.699 100.471C137.501 96.923 126.507 96.2215 116.918 98.3333Z" fill="#C51516"/>
<path d="M405.886 135.011C412.159 135.011 418.433 135.011 424.897 135.011C425.472 137.026 426.047 139.041 426.639 141.117C429.846 152.245 433.158 163.378 437.254 174.218C438.815 170.741 439.993 167.138 441.195 163.527C441.359 163.035 441.359 163.035 441.526 162.534C443.78 155.773 445.842 148.96 447.837 142.119C448.53 139.749 449.23 137.38 449.928 135.011C455.993 135.011 462.057 135.011 468.305 135.011C467.235 139.282 467.235 139.282 466.751 140.78C466.641 141.121 466.531 141.461 466.418 141.812C466.302 142.169 466.185 142.526 466.065 142.894C465.94 143.279 465.816 143.663 465.687 144.059C465.282 145.305 464.873 146.551 464.464 147.796C464.359 148.116 464.359 148.116 464.251 148.442C459.552 162.749 454.12 176.71 447.71 190.343C447.571 190.639 447.433 190.936 447.29 191.241C446.89 192.095 446.488 192.948 446.086 193.801C445.966 194.056 445.846 194.311 445.723 194.574C444.896 196.313 444.896 196.313 444.542 196.667C444.075 196.696 443.606 196.704 443.139 196.703C442.84 196.703 442.542 196.703 442.235 196.703C441.911 196.701 441.587 196.699 441.253 196.698C440.758 196.697 440.758 196.697 440.253 196.696C439.194 196.694 438.135 196.69 437.076 196.686C436.36 196.685 435.644 196.683 434.928 196.682C433.168 196.679 431.409 196.673 429.65 196.667C421.778 181.395 415.692 165.325 410.223 149.061C410.149 148.844 410.076 148.628 410.001 148.404C408.507 143.973 407.218 139.498 405.886 135.011Z" fill="white"/>
<path d="M596.947 105.922C596.947 106.281 596.948 106.639 596.949 107.009C596.968 115.744 596.992 124.479 597.021 133.214C597.036 137.438 597.048 141.662 597.056 145.887C597.064 149.569 597.074 153.251 597.089 156.933C597.096 158.882 597.102 160.832 597.104 162.781C597.106 164.617 597.113 166.453 597.122 168.288C597.125 168.961 597.126 169.634 597.126 170.307C597.125 171.228 597.131 172.149 597.137 173.07C597.136 173.334 597.134 173.597 597.133 173.869C597.159 176.107 597.52 178.332 598.868 180.166C601.225 181.917 603.552 182.702 606.452 183.071C606.1 186.406 605.573 189.706 605.007 193.011C604.971 193.22 604.936 193.429 604.899 193.644C604.797 194.243 604.694 194.842 604.59 195.44C604.529 195.791 604.468 196.141 604.406 196.502C604.234 197.299 604.234 197.299 603.917 197.615C597.15 198.046 589.893 196.91 584.473 192.591C580.74 189.204 579.464 184.615 579.152 179.736C579.068 177.605 579.084 175.474 579.095 173.342C579.095 172.635 579.095 171.927 579.095 171.219C579.094 169.313 579.1 167.408 579.107 165.503C579.113 163.506 579.113 161.509 579.114 159.511C579.117 156.164 579.123 152.818 579.131 149.471C579.14 146.026 579.147 142.582 579.151 139.137C579.151 138.924 579.151 138.711 579.152 138.492C579.153 137.423 579.154 136.355 579.155 135.286C579.165 126.446 579.182 117.607 579.203 108.767C580.442 108.41 581.653 108.063 582.927 107.86C583.338 107.794 583.338 107.794 583.757 107.726C584.046 107.681 584.334 107.636 584.632 107.589C584.934 107.541 585.237 107.493 585.548 107.443C586.185 107.342 586.821 107.242 587.458 107.142C588.431 106.989 589.403 106.833 590.376 106.678C590.996 106.58 591.616 106.482 592.236 106.384C592.671 106.314 592.671 106.314 593.114 106.243C593.522 106.18 593.522 106.18 593.938 106.115C594.175 106.078 594.413 106.04 594.658 106.002C595.426 105.915 596.174 105.917 596.947 105.922Z" fill="white"/>
<path d="M139.731 109.716C139.964 109.779 140.198 109.841 140.438 109.906C146.644 111.604 152.239 114.782 157.158 118.885C157.332 119.03 157.506 119.175 157.686 119.325C166.409 126.704 172.061 137.486 173.227 148.84C174.02 159.577 171.698 170.399 165.396 179.276C165.177 179.589 164.957 179.902 164.731 180.224C157.706 189.786 147.411 196.371 135.663 198.418C125.467 199.974 115.182 198.498 106.145 193.505C105.814 193.33 105.483 193.154 105.142 192.974C94.7904 187.277 87.2679 177.133 83.9819 165.904C80.8016 154.52 82.1014 142.267 87.7677 131.849C94.2822 120.617 104.36 112.837 116.918 109.4C123.992 107.556 132.723 107.711 139.731 109.716ZM102.343 122.996C102.179 123.134 102.015 123.272 101.846 123.415C97.9402 126.755 95.0041 130.537 92.5204 135.011C92.2509 135.489 92.2509 135.489 91.9758 135.978C87.7741 143.861 86.6491 154.252 89.0351 162.835C89.1442 163.269 89.2531 163.703 89.3618 164.137C91.9309 173.955 98.701 182.707 107.426 187.881C116.089 192.858 126.898 194.975 136.741 192.517C137.749 192.243 138.74 191.936 139.731 191.608C139.957 191.537 140.183 191.466 140.416 191.392C149.134 188.618 156.792 182.609 161.594 174.85C161.791 174.542 161.988 174.234 162.192 173.917C167.346 165.561 169.128 154.729 166.989 145.137C165.415 138.783 162.704 133.044 158.425 128.055C158.159 127.738 157.893 127.42 157.618 127.094C151.251 119.712 141.842 114.839 132.127 113.826C121.2 113.064 110.759 115.878 102.343 122.996Z" fill="#C51516"/>
<path d="M403.985 135.959C403.796 137.825 403.537 139.644 403.163 141.481C403.115 141.722 403.067 141.962 403.017 142.209C402.917 142.71 402.815 143.212 402.714 143.713C402.558 144.482 402.404 145.251 402.251 146.021C402.152 146.51 402.054 147 401.955 147.489C401.909 147.719 401.863 147.949 401.816 148.185C401.486 149.798 401.486 149.798 401.133 150.504C399.281 150.375 397.52 150.094 395.707 149.694C391.057 148.735 386.174 149.166 381.488 149.555C381.488 165.102 381.488 180.649 381.488 196.667C375.633 196.667 369.777 196.667 363.745 196.667C363.745 177.364 363.745 158.061 363.745 138.173C366.919 137.117 369.985 136.165 373.23 135.426C373.439 135.378 373.647 135.331 373.862 135.282C383.506 133.097 394.546 132.458 403.985 135.959Z" fill="white"/>
<path d="M545.3 135.011C551.155 135.011 557.011 135.011 563.044 135.011C563.044 155.357 563.044 175.704 563.044 196.667C557.188 196.667 551.333 196.667 545.3 196.667C545.3 176.32 545.3 155.974 545.3 135.011Z" fill="white"/>
<path d="M128.958 122.047C130.08 122.932 130.492 123.314 130.721 124.735C130.507 126.06 130.256 126.509 129.275 127.422C128.359 127.672 127.448 127.698 126.503 127.738C120.698 128.175 115.351 130.272 110.898 134.062C110.645 134.252 110.393 134.442 110.133 134.638C105.114 138.86 102.597 145.376 102.046 151.729C102.03 151.989 102.014 152.249 101.997 152.516C101.873 154.092 101.686 155.093 100.442 156.195C99.7387 156.394 99.7387 156.394 99.0159 156.373C98.7774 156.373 98.5389 156.374 98.2931 156.374C97.2861 156.118 96.9261 155.775 96.3227 154.93C96.2009 154.062 96.1567 153.345 96.1841 152.48C96.1892 152.242 96.1943 152.004 96.1995 151.758C96.4141 145.514 98.5103 139.659 102.343 134.695C102.468 134.529 102.593 134.364 102.722 134.194C104.891 131.364 107.353 129.157 110.264 127.106C110.523 126.921 110.783 126.737 111.05 126.547C115.947 123.359 123.109 121.046 128.958 122.047Z" fill="#C51516"/>
<path d="M545.617 115.407C551.368 115.407 557.119 115.407 563.044 115.407C563.044 120.207 563.044 125.007 563.044 129.952C557.293 129.952 551.542 129.952 545.617 129.952C545.617 125.152 545.617 120.352 545.617 115.407Z" fill="#C51516"/>
</svg>
